<?xml version="1.0" encoding="utf-8"?>
<!DOCTYPE score-partwise
  PUBLIC '-//Recordare//DTD MusicXML 2.0 Partwise//EN'
  'http://www.musicxml.org/dtds/partwise.dtd'>
<score-partwise>
  <movement-title>Music21 Fragment</movement-title>
  <identification>
    <creator type="composer">Music21</creator>
  </identification>
  <defaults>
    <scaling>
      <millimeters>7</millimeters>
      <tenths>40</tenths>
    </scaling>
  </defaults>
  <part-list>
    <score-part id="P0aa74b4a4b295a14fb812e513c4c907f">
      <part-name></part-name>
    </score-part>
  </part-list>
  <part id="P0aa74b4a4b295a14fb812e513c4c907f">
    <measure number="1">
      <attributes>
        <divisions>10080</divisions>
        <time>
          <beats>4</beats>
          <beat-type>4</beat-type>
        </time>
        <clef>
          <sign>G</sign>
          <line>2</line>
        </clef>
      </attributes>
      <direction>
        <direction-type>
          <metronome parentheses="no">
            <beat-unit>quarter</beat-unit>
            <per-minute>140</per-minute>
          </metronome>
        </direction-type>
        <offset>0</offset>
        <sound tempo="140.0"/>
      </direction>
      <note>
        <pitch>
          <step>G</step>
          <octave>4</octave>
        </pitch>
        <duration>10080</duration>
        <type>quarter</type>
        <stem>up</stem>
        <notations/>
        <lyric number="1">
          <syllabic>begin</syllabic>
          <text>1. Ko</text>
        </lyric>
        <lyric number="2">
          <syllabic>begin</syllabic>
          <text>2. O</text>
        </lyric>
        <lyric number="3">
          <syllabic>begin</syllabic>
          <text>3. Mu</text>
        </lyric>
        <lyric number="4">
          <syllabic>begin</syllabic>
          <text>4. Mu</text>
        </lyric>
        <lyric number="5">
          <syllabic>begin</syllabic>
          <text>5. A</text>
        </lyric>
      </note>
      <note>
        <pitch>
          <step>G</step>
          <octave>4</octave>
        </pitch>
        <duration>5040</duration>
        <type>eighth</type>
        <stem>up</stem>
        <beam number="1">begin</beam>
        <notations/>
        <lyric number="1">
          <syllabic>middle</syllabic>
          <text>ki</text>
        </lyric>
        <lyric number="2">
          <syllabic>middle</syllabic>
          <text>do</text>
        </lyric>
        <lyric number="3">
          <syllabic>middle</syllabic>
          <text>ka</text>
        </lyric>
        <lyric number="4">
          <syllabic>middle</syllabic>
          <text>ka</text>
        </lyric>
        <lyric number="5">
          <syllabic>end</syllabic>
          <text>sa</text>
        </lyric>
      </note>
      <note>
        <pitch>
          <step>F</step>
          <octave>4</octave>
        </pitch>
        <duration>5040</duration>
        <type>eighth</type>
        <stem>up</stem>
        <beam number="1">end</beam>
        <notations/>
        <lyric number="1">
          <syllabic>middle</syllabic>
          <text>ri</text>
        </lyric>
        <lyric number="2">
          <syllabic>middle</syllabic>
          <text>ri</text>
        </lyric>
      </note>
      <note>
        <pitch>
          <step>G</step>
          <octave>4</octave>
        </pitch>
        <duration>10080</duration>
        <type>quarter</type>
        <stem>up</stem>
        <notations/>
        <lyric number="1">
          <syllabic>end</syllabic>
          <text>ko</text>
        </lyric>
        <lyric number="2">
          <syllabic>middle</syllabic>
          <text>ta</text>
        </lyric>
        <lyric number="3">
          <syllabic>end</syllabic>
          <text>i</text>
        </lyric>
        <lyric number="4">
          <syllabic>end</syllabic>
          <text>i</text>
        </lyric>
        <lyric number="5">
          <syllabic>begin</syllabic>
          <text>ku</text>
        </lyric>
      </note>
      <note>
        <pitch>
          <step>C</step>
          <octave>5</octave>
        </pitch>
        <duration>10080</duration>
        <type>quarter</type>
        <stem>down</stem>
        <notations/>
        <lyric number="1">
          <syllabic>single</syllabic>
          <text>no</text>
        </lyric>
        <lyric number="2">
          <syllabic>end</syllabic>
          <text>ka</text>
        </lyric>
        <lyric number="3">
          <syllabic>single</syllabic>
          <text>no</text>
        </lyric>
        <lyric number="4">
          <syllabic>single</syllabic>
          <text>no</text>
        </lyric>
        <lyric number="5">
          <syllabic>middle</syllabic>
          <text>sa</text>
        </lyric>
      </note>
    </measure>
    <measure number="2">
      <attributes>
        <divisions>10080</divisions>
      </attributes>
      <note>
        <pitch>
          <step>B</step>
          <alter>-1</alter>
          <octave>4</octave>
        </pitch>
        <duration>10080</duration>
        <type>quarter</type>
        <stem>down</stem>
        <notations/>
      </note>
      <note>
        <pitch>
          <step>C</step>
          <octave>5</octave>
        </pitch>
        <duration>10080</duration>
        <type>quarter</type>
        <stem>down</stem>
        <notations/>
        <lyric number="1">
          <syllabic>begin</syllabic>
          <text>ta</text>
        </lyric>
        <lyric number="2">
          <syllabic>begin</syllabic>
          <text>o</text>
        </lyric>
        <lyric number="3">
          <syllabic>begin</syllabic>
          <text>ya</text>
        </lyric>
        <lyric number="4">
          <syllabic>begin</syllabic>
          <text>ya</text>
        </lyric>
        <lyric number="5">
          <syllabic>middle</syllabic>
          <text>ga</text>
        </lyric>
      </note>
      <note>
        <pitch>
          <step>D</step>
          <octave>5</octave>
        </pitch>
        <duration>10080</duration>
        <type>quarter</type>
        <stem>down</stem>
        <notations/>
        <lyric number="1">
          <syllabic>end</syllabic>
          <text>ke</text>
        </lyric>
        <lyric number="2">
          <syllabic>middle</syllabic>
          <text>do</text>
        </lyric>
        <lyric number="3">
          <syllabic>end</syllabic>
          <text>ma</text>
        </lyric>
        <lyric number="4">
          <syllabic>end</syllabic>
          <text>ma</text>
        </lyric>
        <lyric number="5">
          <syllabic>end</syllabic>
          <text>ri</text>
        </lyric>
      </note>
      <note>
        <pitch>
          <step>D</step>
          <octave>5</octave>
        </pitch>
        <duration>5040</duration>
        <type>eighth</type>
        <stem>down</stem>
        <beam number="1">begin</beam>
        <notations/>
        <lyric number="1">
          <syllabic>single</syllabic>
          <text>wa</text>
        </lyric>
        <lyric number="2">
          <syllabic>end</syllabic>
          <text>re</text>
        </lyric>
        <lyric number="3">
          <syllabic>single</syllabic>
          <text>o</text>
        </lyric>
        <lyric number="4">
          <syllabic>single</syllabic>
          <text>ni</text>
        </lyric>
        <lyric number="5">
          <syllabic>single</syllabic>
          <text>no</text>
        </lyric>
      </note>
      <note>
        <pitch>
          <step>C</step>
          <octave>5</octave>
        </pitch>
        <duration>5040</duration>
        <type>eighth</type>
        <stem>down</stem>
        <beam number="1">end</beam>
        <notations/>
      </note>
    </measure>
    <measure number="3">
      <attributes>
        <divisions>10080</divisions>
      </attributes>
      <note>
        <pitch>
          <step>D</step>
          <octave>5</octave>
        </pitch>
        <duration>10080</duration>
        <type>quarter</type>
        <stem>down</stem>
        <notations/>
        <lyric number="1">
          <syllabic>begin</syllabic>
          <text>shi</text>
        </lyric>
        <lyric number="2">
          <syllabic>begin</syllabic>
          <text>na</text>
        </lyric>
        <lyric number="3">
          <syllabic>begin</syllabic>
          <text>ka</text>
        </lyric>
        <lyric number="4">
          <syllabic>begin</syllabic>
          <text>na</text>
        </lyric>
        <lyric number="5">
          <syllabic>single</syllabic>
          <text>me</text>
        </lyric>
      </note>
      <note>
        <pitch>
          <step>C</step>
          <octave>5</octave>
        </pitch>
        <duration>5040</duration>
        <type>eighth</type>
        <stem>down</stem>
        <beam number="1">begin</beam>
        <notations/>
        <lyric number="1">
          <syllabic>middle</syllabic>
          <text>chi</text>
        </lyric>
        <lyric number="2">
          <syllabic>end</syllabic>
          <text>ku</text>
        </lyric>
        <lyric number="3">
          <syllabic>middle</syllabic>
          <text>zu</text>
        </lyric>
        <lyric number="4">
          <syllabic>end</syllabic>
          <text>ku</text>
        </lyric>
      </note>
      <note>
        <pitch>
          <step>B</step>
          <alter>-1</alter>
          <octave>4</octave>
        </pitch>
        <duration>5040</duration>
        <type>eighth</type>
        <stem>down</stem>
        <beam number="1">end</beam>
        <notations/>
        <lyric number="1">
          <syllabic>middle</syllabic>
          <text>su</text>
        </lyric>
      </note>
      <note>
        <pitch>
          <step>G</step>
          <octave>4</octave>
        </pitch>
        <duration>10080</duration>
        <type>quarter</type>
        <stem>up</stem>
        <notations/>
        <lyric number="1">
          <syllabic>end</syllabic>
          <text>n</text>
        </lyric>
        <lyric number="2">
          <syllabic>single</syllabic>
          <text>ko</text>
        </lyric>
        <lyric number="3">
          <syllabic>end</syllabic>
          <text>ko</text>
        </lyric>
        <lyric number="4">
          <syllabic>begin</syllabic>
          <text>hi</text>
        </lyric>
        <lyric number="5">
          <syllabic>single</syllabic>
          <text>o</text>
        </lyric>
      </note>
      <note>
        <pitch>
          <step>B</step>
          <alter>-1</alter>
          <octave>4</octave>
        </pitch>
        <duration>5040</duration>
        <type>eighth</type>
        <stem>down</stem>
        <beam number="1">begin</beam>
        <notations/>
        <lyric number="2">
          <syllabic>single</syllabic>
          <text>o</text>
        </lyric>
        <lyric number="3">
          <syllabic>single</syllabic>
          <text>to</text>
        </lyric>
        <lyric number="4">
          <syllabic>middle</syllabic>
          <text>yo</text>
        </lyric>
        <lyric number="5">
          <syllabic>single</syllabic>
          <text>ba</text>
        </lyric>
      </note>
      <note>
        <pitch>
          <step>C</step>
          <octave>5</octave>
        </pitch>
        <duration>5040</duration>
        <type>eighth</type>
        <stem>down</stem>
        <beam number="1">end</beam>
        <notations/>
      </note>
    </measure>
    <measure number="4">
      <attributes>
        <divisions>10080</divisions>
      </attributes>
      <note>
        <pitch>
          <step>B</step>
          <alter>-1</alter>
          <octave>4</octave>
        </pitch>
        <duration>5040</duration>
        <type>eighth</type>
        <stem>up</stem>
        <beam number="1">begin</beam>
        <notations/>
        <lyric number="1">
          <syllabic>begin</syllabic>
          <text>go</text>
        </lyric>
        <lyric number="2">
          <syllabic>begin</syllabic>
          <text>i</text>
        </lyric>
        <lyric number="3">
          <syllabic>begin</syllabic>
          <text>su</text>
        </lyric>
        <lyric number="4">
          <syllabic>middle</syllabic>
          <text>do</text>
        </lyric>
        <lyric number="5">
          <syllabic>begin</syllabic>
          <text>sa</text>
        </lyric>
      </note>
      <note>
        <pitch>
          <step>G</step>
          <octave>4</octave>
        </pitch>
        <duration>5040</duration>
        <type>eighth</type>
        <stem>up</stem>
        <beam number="1">end</beam>
        <notations/>
      </note>
      <note>
        <pitch>
          <step>G</step>
          <octave>4</octave>
        </pitch>
        <duration>5040</duration>
        <type>eighth</type>
        <stem>up</stem>
        <beam number="1">begin</beam>
        <notations/>
        <lyric number="1">
          <syllabic>end</syllabic>
          <text>bu</text>
        </lyric>
        <lyric number="2">
          <syllabic>middle</syllabic>
          <text>ko</text>
        </lyric>
        <lyric number="3">
          <syllabic>middle</syllabic>
          <text>re</text>
        </lyric>
        <lyric number="4">
          <syllabic>end</syllabic>
          <text>ri</text>
        </lyric>
        <lyric number="5">
          <syllabic>middle</syllabic>
          <text>ma</text>
        </lyric>
      </note>
      <note>
        <pitch>
          <step>F</step>
          <octave>4</octave>
        </pitch>
        <duration>5040</duration>
        <type>eighth</type>
        <stem>up</stem>
        <beam number="1">end</beam>
        <notations/>
      </note>
      <note>
        <pitch>
          <step>G</step>
          <octave>4</octave>
        </pitch>
        <duration>10080</duration>
        <type>quarter</type>
        <stem>up</stem>
        <notations/>
        <lyric number="1">
          <syllabic>single</syllabic>
          <text>ja.</text>
        </lyric>
        <lyric number="2">
          <syllabic>end</syllabic>
          <text>se.</text>
        </lyric>
        <lyric number="3">
          <syllabic>end</syllabic>
          <text>ba.</text>
        </lyric>
        <lyric number="4">
          <syllabic>single</syllabic>
          <text>wa</text>
        </lyric>
        <lyric number="5">
          <syllabic>end</syllabic>
          <text>su</text>
        </lyric>
      </note>
      <note>
        <rest/>
        <duration>10080</duration>
        <type>quarter</type>
        <notations/>
      </note>
    </measure>
    <measure number="5">
      <attributes>
        <divisions>10080</divisions>
      </attributes>
      <note>
        <pitch>
          <step>D</step>
          <octave>4</octave>
        </pitch>
        <duration>10080</duration>
        <type>quarter</type>
        <stem>up</stem>
        <notations/>
        <lyric number="1">
          <syllabic>begin</syllabic>
          <text>Na</text>
        </lyric>
        <lyric number="2">
          <syllabic>begin</syllabic>
          <text>Sa</text>
        </lyric>
        <lyric number="3">
          <syllabic>begin</syllabic>
          <text>ni</text>
        </lyric>
        <lyric number="4">
          <syllabic>begin</syllabic>
          <text>na</text>
        </lyric>
        <lyric number="5">
          <syllabic>begin</syllabic>
          <text>A</text>
        </lyric>
      </note>
      <note>
        <pitch>
          <step>F</step>
          <octave>4</octave>
        </pitch>
        <duration>5040</duration>
        <type>eighth</type>
        <stem>up</stem>
        <beam number="1">begin</beam>
        <notations/>
        <lyric number="1">
          <syllabic>middle</syllabic>
          <text>ga</text>
        </lyric>
        <lyric number="2">
          <syllabic>middle</syllabic>
          <text>sa</text>
        </lyric>
        <lyric number="3">
          <syllabic>middle</syllabic>
          <text>na</text>
        </lyric>
        <lyric number="4">
          <syllabic>middle</syllabic>
          <text>i</text>
        </lyric>
        <lyric number="5">
          <syllabic>end</syllabic>
          <text>sa</text>
        </lyric>
      </note>
      <note>
        <pitch>
          <step>G</step>
          <octave>4</octave>
        </pitch>
        <duration>5040</duration>
        <type>eighth</type>
        <stem>up</stem>
        <beam number="1">end</beam>
        <notations/>
      </note>
      <note>
        <pitch>
          <step>B</step>
          <alter>-1</alter>
          <octave>4</octave>
        </pitch>
        <duration>10080</duration>
        <type>quarter</type>
        <stem>down</stem>
        <notations/>
        <lyric number="1">
          <syllabic>end</syllabic>
          <text>i</text>
        </lyric>
        <lyric number="2">
          <syllabic>end</syllabic>
          <text>ra</text>
        </lyric>
        <lyric number="3">
          <syllabic>end</syllabic>
          <text>wa</text>
        </lyric>
        <lyric number="4">
          <syllabic>end</syllabic>
          <text>te</text>
        </lyric>
        <lyric number="5">
          <syllabic>begin</syllabic>
          <text>ku</text>
        </lyric>
      </note>
      <note>
        <pitch>
          <step>G</step>
          <octave>4</octave>
        </pitch>
        <duration>5040</duration>
        <type>eighth</type>
        <stem>up</stem>
        <beam number="1">begin</beam>
        <notations/>
        <lyric number="1">
          <syllabic>single</syllabic>
          <text>wa</text>
        </lyric>
        <lyric number="2">
          <syllabic>single</syllabic>
          <text>wa</text>
        </lyric>
        <lyric number="3">
          <syllabic>single</syllabic>
          <text>ga</text>
        </lyric>
        <lyric number="4">
          <syllabic>single</syllabic>
          <text>wa</text>
        </lyric>
        <lyric number="5">
          <syllabic>middle</syllabic>
          <text>sa</text>
        </lyric>
      </note>
      <note>
        <pitch>
          <step>F</step>
          <octave>4</octave>
        </pitch>
        <duration>5040</duration>
        <type>eighth</type>
        <stem>up</stem>
        <beam number="1">end</beam>
        <notations/>
      </note>
    </measure>
    <measure number="6">
      <attributes>
        <divisions>10080</divisions>
      </attributes>
      <note>
        <pitch>
          <step>D</step>
          <octave>4</octave>
        </pitch>
        <duration>10080</duration>
        <type>quarter</type>
        <stem>up</stem>
        <notations/>
      </note>
      <note>
        <pitch>
          <step>F</step>
          <octave>4</octave>
        </pitch>
        <duration>10080</duration>
        <type>quarter</type>
        <stem>up</stem>
        <notations/>
        <lyric number="1">
          <syllabic>begin</syllabic>
          <text>so</text>
        </lyric>
        <lyric number="2">
          <syllabic>begin</syllabic>
          <text>ma</text>
        </lyric>
        <lyric number="3">
          <syllabic>begin</syllabic>
          <text>ki</text>
        </lyric>
        <lyric number="4">
          <syllabic>begin</syllabic>
          <text>sa</text>
        </lyric>
        <lyric number="5">
          <syllabic>middle</syllabic>
          <text>ga</text>
        </lyric>
      </note>
      <note>
        <pitch>
          <step>C</step>
          <octave>4</octave>
        </pitch>
        <duration>10080</duration>
        <type>quarter</type>
        <stem>up</stem>
        <notations/>
        <lyric number="1">
          <syllabic>end</syllabic>
          <text>de</text>
        </lyric>
        <lyric number="2">
          <syllabic>end</syllabic>
          <text>do</text>
        </lyric>
        <lyric number="3">
          <syllabic>middle</syllabic>
          <text>re</text>
        </lyric>
        <lyric number="4">
          <syllabic>middle</syllabic>
          <text>ga</text>
        </lyric>
        <lyric number="5">
          <syllabic>end</syllabic>
          <text>ri</text>
        </lyric>
      </note>
      <note>
        <pitch>
          <step>D</step>
          <octave>4</octave>
        </pitch>
        <duration>5040</duration>
        <type>eighth</type>
        <stem>up</stem>
        <beam number="1">begin</beam>
        <notations/>
        <lyric number="1">
          <syllabic>single</syllabic>
          <text>no</text>
        </lyric>
        <lyric number="2">
          <syllabic>single</syllabic>
          <text>no</text>
        </lyric>
        <lyric number="3">
          <syllabic>end</syllabic>
          <text>te</text>
        </lyric>
        <lyric number="4">
          <syllabic>end</syllabic>
          <text>ri</text>
        </lyric>
        <lyric number="5">
          <syllabic>single</syllabic>
          <text>no</text>
        </lyric>
      </note>
      <note>
        <pitch>
          <step>F</step>
          <octave>4</octave>
        </pitch>
        <duration>5040</duration>
        <type>eighth</type>
        <stem>up</stem>
        <beam number="1">end</beam>
        <notations/>
      </note>
    </measure>
    <measure number="7">
      <attributes>
        <divisions>10080</divisions>
      </attributes>
      <note>
        <pitch>
          <step>G</step>
          <octave>4</octave>
        </pitch>
        <duration>10080</duration>
        <type>quarter</type>
        <stem>up</stem>
        <notations/>
        <lyric number="1">
          <syllabic>begin</syllabic>
          <text>ka</text>
        </lyric>
        <lyric number="2">
          <syllabic>begin</syllabic>
          <text>mo</text>
        </lyric>
        <lyric number="3">
          <syllabic>begin</syllabic>
          <text>ka</text>
        </lyric>
        <lyric number="4">
          <syllabic>begin</syllabic>
          <text>na</text>
        </lyric>
        <lyric number="5">
          <syllabic>single</syllabic>
          <text>me</text>
        </lyric>
      </note>
      <note>
        <pitch>
          <step>B</step>
          <alter>-1</alter>
          <octave>4</octave>
        </pitch>
        <duration>10080</duration>
        <type>quarter</type>
        <stem>down</stem>
        <notations/>
        <lyric number="1">
          <syllabic>middle</syllabic>
          <text>na</text>
        </lyric>
        <lyric number="2">
          <syllabic>end</syllabic>
          <text>to</text>
        </lyric>
        <lyric number="3">
          <syllabic>middle</syllabic>
          <text>zu</text>
        </lyric>
        <lyric number="4">
          <syllabic>middle</syllabic>
          <text>i</text>
        </lyric>
        <lyric number="5">
          <syllabic>single</syllabic>
          <text>o</text>
        </lyric>
      </note>
      <note>
        <pitch>
          <step>B</step>
          <alter>-1</alter>
          <octave>4</octave>
        </pitch>
        <duration>10080</duration>
        <type>quarter</type>
        <stem>down</stem>
        <notations/>
        <lyric number="1">
          <syllabic>middle</syllabic>
          <text>ka</text>
        </lyric>
        <lyric number="2">
          <syllabic>single</syllabic>
          <text>ni</text>
        </lyric>
        <lyric number="3">
          <syllabic>middle</syllabic>
          <text>ka</text>
        </lyric>
        <lyric number="4">
          <syllabic>end</syllabic>
          <text>te</text>
        </lyric>
        <lyric number="5">
          <syllabic>begin</syllabic>
          <text>sa</text>
        </lyric>
      </note>
      <note>
        <pitch>
          <step>G</step>
          <octave>4</octave>
        </pitch>
        <duration>5040</duration>
        <type>eighth</type>
        <stem>up</stem>
        <beam number="1">begin</beam>
        <notations/>
        <lyric number="1">
          <syllabic>end</syllabic>
          <text>i</text>
        </lyric>
        <lyric number="2">
          <syllabic>begin</syllabic>
          <text>a</text>
        </lyric>
        <lyric number="3">
          <syllabic>middle</syllabic>
          <text>re</text>
        </lyric>
        <lyric number="4">
          <syllabic>single</syllabic>
          <text>wa</text>
        </lyric>
        <lyric number="5">
          <syllabic>middle</syllabic>
          <text>ma</text>
        </lyric>
      </note>
      <note>
        <pitch>
          <step>F</step>
          <octave>4</octave>
        </pitch>
        <duration>5040</duration>
        <type>eighth</type>
        <stem>up</stem>
        <beam number="1">end</beam>
        <notations/>
      </note>
    </measure>
    <measure number="8">
      <attributes>
        <divisions>10080</divisions>
      </attributes>
      <note>
        <pitch>
          <step>G</step>
          <octave>4</octave>
        </pitch>
        <duration>20160</duration>
        <type>half</type>
        <stem>up</stem>
        <notations/>
        <lyric number="1">
          <syllabic>single</syllabic>
          <text>ja.</text>
        </lyric>
        <lyric number="2">
          <syllabic>end</syllabic>
          <text>ru.</text>
        </lyric>
        <lyric number="3">
          <syllabic>end</syllabic>
          <text>n.</text>
        </lyric>
        <lyric number="4">
          <syllabic>single</syllabic>
          <text>agari.</text>
        </lyric>
        <lyric number="5">
          <syllabic>end</syllabic>
          <text>su.</text>
        </lyric>
      </note>
      <note>
        <rest/>
        <duration>20160</duration>
        <type>half</type>
        <notations/>
      </note>
    </measure>
    <measure number="9">
      <attributes>
        <divisions>10080</divisions>
      </attributes>
      <note>
        <pitch>
          <step>B</step>
          <alter>-1</alter>
          <octave>4</octave>
        </pitch>
        <duration>10080</duration>
        <type>quarter</type>
        <stem>down</stem>
        <notations/>
        <lyric number="1">
          <syllabic>begin</syllabic>
          <text>Ma</text>
        </lyric>
      </note>
      <note>
        <pitch>
          <step>C</step>
          <octave>5</octave>
        </pitch>
        <duration>5040</duration>
        <type>eighth</type>
        <stem>down</stem>
        <beam number="1">begin</beam>
        <notations/>
        <lyric number="1">
          <syllabic>end</syllabic>
          <text>do</text>
        </lyric>
      </note>
      <note>
        <pitch>
          <step>D</step>
          <octave>5</octave>
        </pitch>
        <duration>5040</duration>
        <type>eighth</type>
        <stem>down</stem>
        <beam number="1">end</beam>
        <notations/>
        <lyric number="1">
          <syllabic>single</syllabic>
          <text>no</text>
        </lyric>
      </note>
      <note>
        <pitch>
          <step>B</step>
          <alter>-1</alter>
          <octave>4</octave>
        </pitch>
        <duration>10080</duration>
        <type>quarter</type>
        <stem>down</stem>
        <notations/>
        <lyric number="1">
          <syllabic>begin</syllabic>
          <text>san</text>
        </lyric>
      </note>
      <barline location="right">
        <bar-style>light-heavy</bar-style>
      </barline>
    </measure>
  </part>
</score-partwise>
