<?xml version="1.0" encoding="UTF-8"?>
<!DOCTYPE score-partwise PUBLIC "-//Recordare//DTD MusicXML 2.0 Partwise//EN" "http://www.musicxml.org/dtds/partwise.dtd">
<score-partwise>
  <identification>
    <encoding>
      <software>MuseScore 1.3</software>
      <encoding-date>2015-03-25</encoding-date>
      </encoding>
    <source>http://musescore.com/score/305446</source>
    </identification>
  <defaults>
    <scaling>
      <millimeters>7.056</millimeters>
      <tenths>40</tenths>
      </scaling>
    <page-layout>
      <page-height>1683.67</page-height>
      <page-width>1190.48</page-width>
      <page-margins type="even">
        <left-margin>56.6893</left-margin>
        <right-margin>56.6893</right-margin>
        <top-margin>56.6893</top-margin>
        <bottom-margin>113.379</bottom-margin>
        </page-margins>
      <page-margins type="odd">
        <left-margin>56.6893</left-margin>
        <right-margin>56.6893</right-margin>
        <top-margin>56.6893</top-margin>
        <bottom-margin>113.379</bottom-margin>
        </page-margins>
      </page-layout>
    </defaults>
  <credit page="1">
    <credit-words default-x="595.238" default-y="1626.98" font-size="24" justify="center" valign="top">12 Räuber</credit-words>
    </credit>
  <part-list>
    <score-part id="P1">
      <part-name>Voice</part-name>
      <part-abbreviation>Vo.</part-abbreviation>
      <score-instrument id="P1-I3">
        <instrument-name>Voice</instrument-name>
        </score-instrument>
      <midi-instrument id="P1-I3">
        <midi-channel>1</midi-channel>
        <midi-program>43</midi-program>
        <volume>78.7402</volume>
        <pan>0</pan>
        </midi-instrument>
      </score-part>
    </part-list>
  <part id="P1">
    <measure number="1" width="287.87">
      <print>
        <system-layout>
          <system-margins>
            <left-margin>71.16</left-margin>
            <right-margin>0.00</right-margin>
            </system-margins>
          <top-system-distance>180.00</top-system-distance>
          </system-layout>
        </print>
      <attributes>
        <divisions>2</divisions>
        <key>
          <fifths>1</fifths>
          <mode>major</mode>
          </key>
        <time>
          <beats>2</beats>
          <beat-type>2</beat-type>
          </time>
        <clef>
          <sign>G</sign>
          <line>2</line>
          </clef>
        </attributes>
      <note default-x="120.69" default-y="-30.00">
        <pitch>
          <step>G</step>
          <octave>4</octave>
          </pitch>
        <duration>4</duration>
        <voice>1</voice>
        <type>half</type>
        <stem>up</stem>
        <lyric number="1">
          <syllabic>single</syllabic>
          <text>Bý</text>
          </lyric>
        <lyric number="2">
          <syllabic>begin</syllabic>
          <text>Mnó</text>
          </lyric>
        <lyric number="3">
          <syllabic>single</syllabic>
          <text>Dnjom</text>
          </lyric>
        <lyric number="4">
          <syllabic>single</syllabic>
          <text>x</text>
          </lyric>
        <lyric number="5">
          <syllabic>single</syllabic>
          <text>x</text>
          </lyric>
        </note>
      <note default-x="191.39" default-y="-30.00">
        <pitch>
          <step>G</step>
          <octave>4</octave>
          </pitch>
        <duration>3</duration>
        <voice>1</voice>
        <type>quarter</type>
        <dot/>
        <stem>up</stem>
        <lyric number="1">
          <syllabic>single</syllabic>
          <text>lo</text>
          </lyric>
        <lyric number="2">
          <syllabic>end</syllabic>
          <text>go</text>
          </lyric>
        <lyric number="3">
          <syllabic>begin</syllabic>
          <text>spol</text>
          </lyric>
        </note>
      <note default-x="254.10" default-y="-30.00">
        <pitch>
          <step>G</step>
          <octave>4</octave>
          </pitch>
        <duration>1</duration>
        <voice>1</voice>
        <type>eighth</type>
        <stem>up</stem>
        <lyric number="1">
          <syllabic>begin</syllabic>
          <text>dve</text>
          </lyric>
        <lyric number="2">
          <syllabic>begin</syllabic>
          <text>bo</text>
          </lyric>
        <lyric number="3">
          <syllabic>middle</syllabic>
          <text>ju</text>
          </lyric>
        </note>
      </measure>
    <measure number="2" width="171.45">
      <note default-x="23.54" default-y="-30.00">
        <pitch>
          <step>G</step>
          <octave>4</octave>
          </pitch>
        <duration>4</duration>
        <voice>1</voice>
        <type>half</type>
        <stem>up</stem>
        <lyric number="1">
          <syllabic>middle</syllabic>
          <text>nad</text>
          </lyric>
        <lyric number="2">
          <syllabic>middle</syllabic>
          <text>gáts</text>
          </lyric>
        <lyric number="3">
          <syllabic>middle</syllabic>
          <text>bóv</text>
          </lyric>
        </note>
      <note default-x="84.03" default-y="-35.00">
        <pitch>
          <step>F</step>
          <alter>1</alter>
          <octave>4</octave>
          </pitch>
        <duration>3</duration>
        <voice>1</voice>
        <type>quarter</type>
        <dot/>
        <stem>up</stem>
        <lyric number="1">
          <syllabic>end</syllabic>
          <text>catj</text>
          </lyric>
        <lyric number="2">
          <syllabic>end</syllabic>
          <text>tva</text>
          </lyric>
        <lyric number="3">
          <syllabic>middle</syllabic>
          <text>ni</text>
          </lyric>
        </note>
      <note default-x="137.68" default-y="-30.00">
        <pitch>
          <step>G</step>
          <octave>4</octave>
          </pitch>
        <duration>1</duration>
        <voice>1</voice>
        <type>eighth</type>
        <stem>up</stem>
        <lyric number="1">
          <syllabic>begin</syllabic>
          <text>raz</text>
          </lyric>
        <lyric number="2">
          <syllabic>begin</syllabic>
          <text>na</text>
          </lyric>
        <lyric number="3">
          <syllabic>end</syllabic>
          <text></text>
          </lyric>
        </note>
      </measure>
    <measure number="3" width="113.36">
      <note default-x="19.88" default-y="-25.00">
        <pitch>
          <step>A</step>
          <octave>4</octave>
          </pitch>
        <duration>6</duration>
        <voice>1</voice>
        <type>half</type>
        <dot/>
        <stem>up</stem>
        <lyric number="1">
          <syllabic>middle</syllabic>
          <text>bój</text>
          </lyric>
        <lyric number="2">
          <syllabic>middle</syllabic>
          <text>grá</text>
          </lyric>
        </note>
      <note default-x="80.62" default-y="-35.00">
        <pitch>
          <step>F</step>
          <alter>1</alter>
          <octave>4</octave>
          </pitch>
        <duration>2</duration>
        <voice>1</voice>
        <type>quarter</type>
        <stem>up</stem>
        <lyric number="1">
          <syllabic>middle</syllabic>
          <text>ni</text>
          </lyric>
        <lyric number="2">
          <syllabic>middle</syllabic>
          <text>bi</text>
          </lyric>
        </note>
      </measure>
    <measure number="4" width="102.62">
      <note default-x="23.59" default-y="-45.00">
        <pitch>
          <step>D</step>
          <octave>4</octave>
          </pitch>
        <duration>6</duration>
        <voice>1</voice>
        <type>half</type>
        <dot/>
        <stem>up</stem>
        <lyric number="1">
          <syllabic>end</syllabic>
          <text>kov,</text>
          </lyric>
        <lyric number="2">
          <syllabic>end</syllabic>
          <text>li,</text>
          </lyric>
        </note>
      <note>
        <rest/>
        <duration>2</duration>
        <voice>1</voice>
        <type>quarter</type>
        </note>
      </measure>
    <measure number="5" width="166.50">
      <note default-x="19.89" default-y="-25.00">
        <pitch>
          <step>A</step>
          <octave>4</octave>
          </pitch>
        <duration>4</duration>
        <voice>1</voice>
        <type>half</type>
        <stem>up</stem>
        <lyric number="1">
          <syllabic>single</syllabic>
          <text>byl</text>
          </lyric>
        <lyric number="2">
          <syllabic>begin</syllabic>
          <text>zý</text>
          </lyric>
        </note>
      <note default-x="79.91" default-y="-25.00">
        <pitch>
          <step>A</step>
          <octave>4</octave>
          </pitch>
        <duration>3</duration>
        <voice>1</voice>
        <type>quarter</type>
        <dot/>
        <stem>up</stem>
        <lyric number="1">
          <syllabic>begin</syllabic>
          <text>ku</text>
          </lyric>
        <lyric number="2">
          <syllabic>end</syllabic>
          <text>li</text>
          </lyric>
        </note>
      <note default-x="133.13" default-y="-20.00">
        <pitch>
          <step>B</step>
          <octave>4</octave>
          </pitch>
        <duration>1</duration>
        <voice>1</voice>
        <type>eighth</type>
        <stem>down</stem>
        <lyric number="1">
          <syllabic>middle</syllabic>
          <text>di</text>
          </lyric>
        <lyric number="2">
          <syllabic>begin</syllabic>
          <text>vdre</text>
          </lyric>
        </note>
      </measure>
    <measure number="6" width="164.14">
      <note default-x="20.65" default-y="-15.00">
        <pitch>
          <step>C</step>
          <octave>5</octave>
          </pitch>
        <duration>4</duration>
        <voice>1</voice>
        <type>half</type>
        <stem>down</stem>
        <lyric number="1">
          <syllabic>end</syllabic>
          <text>jár</text>
          </lyric>
        <lyric number="2">
          <syllabic>middle</syllabic>
          <text>mú</text>
          </lyric>
        </note>
      <note default-x="78.80" default-y="-20.00">
        <pitch>
          <step>B</step>
          <octave>4</octave>
          </pitch>
        <duration>3</duration>
        <voice>1</voice>
        <type>quarter</type>
        <dot/>
        <stem>down</stem>
        <lyric number="1">
          <syllabic>begin</syllabic>
          <text>a</text>
          </lyric>
        <lyric number="2">
          <syllabic>end</syllabic>
          <text>cem</text>
          </lyric>
        </note>
      <note default-x="130.37" default-y="-25.00">
        <pitch>
          <step>A</step>
          <octave>4</octave>
          </pitch>
        <duration>1</duration>
        <voice>1</voice>
        <type>eighth</type>
        <stem>up</stem>
        <lyric number="1">
          <syllabic>middle</syllabic>
          <text>ta</text>
          </lyric>
        <lyric number="2">
          <syllabic>begin</syllabic>
          <text>le</text>
          </lyric>
        </note>
      </measure>
    <measure number="7" width="163.16">
      <print new-system="yes">
        <system-layout>
          <system-margins>
            <left-margin>47.72</left-margin>
            <right-margin>0.00</right-margin>
            </system-margins>
          <system-distance>208.99</system-distance>
          </system-layout>
        </print>
      <note default-x="87.32" default-y="-30.00">
        <pitch>
          <step>G</step>
          <octave>4</octave>
          </pitch>
        <duration>6</duration>
        <voice>1</voice>
        <type>half</type>
        <dot/>
        <stem>up</stem>
        <lyric number="1">
          <syllabic>end</syllabic>
          <text>mán.</text>
          </lyric>
        <lyric number="2">
          <syllabic>end</syllabic>
          <text>sú.</text>
          </lyric>
        <lyric number="3">
          <syllabic>single</syllabic>
          <text>x</text>
          </lyric>
        <lyric number="4">
          <syllabic>single</syllabic>
          <text>x</text>
          </lyric>
        <lyric number="5">
          <syllabic>single</syllabic>
          <text></text>
          </lyric>
        </note>
      <note>
        <rest/>
        <duration>2</duration>
        <voice>1</voice>
        <type>quarter</type>
        </note>
      </measure>
    <measure number="8" width="174.00">
      <note default-x="30.50" default-y="-20.00">
        <pitch>
          <step>B</step>
          <octave>4</octave>
          </pitch>
        <duration>4</duration>
        <voice>1</voice>
        <type>half</type>
        <stem>down</stem>
        <lyric number="1">
          <syllabic>begin</syllabic>
          <text>Mnó</text>
          </lyric>
        <lyric number="2">
          <syllabic>single</syllabic>
          <text>Vozdj</text>
          </lyric>
        </note>
      <note default-x="91.11" default-y="-20.00">
        <pitch>
          <step>B</step>
          <octave>4</octave>
          </pitch>
        <duration>3</duration>
        <voice>1</voice>
        <type>quarter</type>
        <dot/>
        <stem>down</stem>
        <lyric number="1">
          <syllabic>end</syllabic>
          <text>go</text>
          </lyric>
        <lyric number="2">
          <syllabic>begin</syllabic>
          <text>Ku</text>
          </lyric>
        </note>
      <note default-x="144.85" default-y="-20.00">
        <pitch>
          <step>B</step>
          <octave>4</octave>
          </pitch>
        <duration>1</duration>
        <voice>1</voice>
        <type>eighth</type>
        <stem>down</stem>
        <lyric number="1">
          <syllabic>begin</syllabic>
          <text>raz</text>
          </lyric>
        <lyric number="2">
          <syllabic>middle</syllabic>
          <text>di</text>
          </lyric>
        </note>
      </measure>
    <measure number="9" width="144.78">
      <note default-x="19.14" default-y="-20.00">
        <pitch>
          <step>B</step>
          <octave>4</octave>
          </pitch>
        <duration>4</duration>
        <voice>1</voice>
        <type>half</type>
        <stem>down</stem>
        <lyric number="1">
          <syllabic>middle</syllabic>
          <text>bój</text>
          </lyric>
        <lyric number="2">
          <syllabic>end</syllabic>
          <text>jár</text>
          </lyric>
        </note>
      <note default-x="72.92" default-y="-25.00">
        <pitch>
          <step>A</step>
          <octave>4</octave>
          </pitch>
        <duration>2</duration>
        <voice>1</voice>
        <type>quarter</type>
        <stem>up</stem>
        <lyric number="1">
          <syllabic>middle</syllabic>
          <text>ni</text>
          </lyric>
        <lyric number="2">
          <syllabic>begin</syllabic>
          <text>iz</text>
          </lyric>
        </note>
      <note default-x="109.57" default-y="-30.00">
        <pitch>
          <step>G</step>
          <octave>4</octave>
          </pitch>
        <duration>2</duration>
        <voice>1</voice>
        <type>quarter</type>
        <stem>up</stem>
        <lyric number="1">
          <syllabic>end</syllabic>
          <text>ki</text>
          </lyric>
        <lyric number="2">
          <syllabic>end</syllabic>
          <text>pod</text>
          </lyric>
        </note>
      </measure>
    <measure number="10" width="109.41">
      <note default-x="20.50" default-y="-15.00">
        <pitch>
          <step>C</step>
          <octave>5</octave>
          </pitch>
        <duration>6</duration>
        <voice>1</voice>
        <type>half</type>
        <dot/>
        <stem>down</stem>
        <lyric number="1">
          <syllabic>begin</syllabic>
          <text>pró</text>
          </lyric>
        <lyric number="2">
          <syllabic>begin</syllabic>
          <text>Kí</text>
          </lyric>
        </note>
      <note default-x="78.22" default-y="-50.00">
        <pitch>
          <step>C</step>
          <octave>4</octave>
          </pitch>
        <duration>2</duration>
        <voice>1</voice>
        <type>quarter</type>
        <stem>up</stem>
        <lyric number="1">
          <syllabic>middle</syllabic>
          <text>li</text>
          </lyric>
        <lyric number="2">
          <syllabic>middle</syllabic>
          <text>je</text>
          </lyric>
        </note>
      </measure>
    <measure number="11" width="91.30">
      <note default-x="16.22" default-y="-50.00">
        <pitch>
          <step>C</step>
          <octave>4</octave>
          </pitch>
        <duration>6</duration>
        <voice>1</voice>
        <type>half</type>
        <dot/>
        <stem>up</stem>
        <lyric number="1">
          <syllabic>end</syllabic>
          <text>li</text>
          </lyric>
        <lyric number="2">
          <syllabic>end</syllabic>
          <text>va</text>
          </lyric>
        </note>
      <note>
        <rest/>
        <duration>2</duration>
        <voice>1</voice>
        <type>quarter</type>
        </note>
      </measure>
    <measure number="12" width="176.02">
      <note default-x="20.50" default-y="-20.00">
        <pitch>
          <step>B</step>
          <octave>4</octave>
          </pitch>
        <duration>4</duration>
        <voice>1</voice>
        <type>half</type>
        <stem>down</stem>
        <lyric number="1">
          <syllabic>begin</syllabic>
          <text>kró</text>
          </lyric>
        <lyric number="2">
          <syllabic>begin</syllabic>
          <text>vý</text>
          </lyric>
        </note>
      <note default-x="83.40" default-y="-30.00">
        <pitch>
          <step>G</step>
          <octave>4</octave>
          </pitch>
        <duration>3</duration>
        <voice>1</voice>
        <type>quarter</type>
        <dot/>
        <stem>up</stem>
        <lyric number="1">
          <syllabic>end</syllabic>
          <text>vi</text>
          </lyric>
        <lyric number="2">
          <syllabic>end</syllabic>
          <text>kral</text>
          </lyric>
        </note>
      <note default-x="139.19" default-y="-20.00">
        <pitch>
          <step>B</step>
          <octave>4</octave>
          </pitch>
        <duration>1</duration>
        <voice>1</voice>
        <type>eighth</type>
        <stem>down</stem>
        <lyric number="1">
          <syllabic>begin</syllabic>
          <text>^cest</text>
          </lyric>
        <lyric number="2">
          <syllabic>begin</syllabic>
          <text>de</text>
          </lyric>
        </note>
      </measure>
    <measure number="13" width="170.70">
      <note default-x="27.96" default-y="-25.00">
        <pitch>
          <step>A</step>
          <octave>4</octave>
          </pitch>
        <duration>4</duration>
        <voice>1</voice>
        <type>half</type>
        <stem>up</stem>
        <lyric number="1">
          <syllabic>end</syllabic>
          <text>ných</text>
          </lyric>
        <lyric number="2">
          <syllabic>middle</syllabic>
          <text>ví</text>
          </lyric>
        </note>
      <note default-x="90.45" default-y="-40.00">
        <pitch>
          <step>E</step>
          <octave>4</octave>
          </pitch>
        <duration>2</duration>
        <voice>1</voice>
        <type>quarter</type>
        <stem>up</stem>
        <lyric number="1">
          <syllabic>begin</syllabic>
          <text>chri</text>
          </lyric>
        <lyric number="2">
          <syllabic>middle</syllabic>
          <text>cu</text>
          </lyric>
        </note>
      <note default-x="130.05" default-y="-35.00">
        <pitch>
          <step>F</step>
          <alter>1</alter>
          <octave>4</octave>
          </pitch>
        <duration>2</duration>
        <voice>1</voice>
        <type>quarter</type>
        <stem>up</stem>
        <lyric number="1">
          <syllabic>middle</syllabic>
          <text>sti</text>
          </lyric>
        <lyric number="2">
          <syllabic>middle</syllabic>
          <text>kra</text>
          </lyric>
        </note>
      </measure>
    <measure number="14" width="116.16">
      <print new-system="yes">
        <system-layout>
          <system-margins>
            <left-margin>47.72</left-margin>
            <right-margin>913.21</right-margin>
            </system-margins>
          <system-distance>208.99</system-distance>
          </system-layout>
        </print>
      <note default-x="78.76" default-y="-30.00">
        <pitch>
          <step>G</step>
          <octave>4</octave>
          </pitch>
        <duration>8</duration>
        <voice>1</voice>
        <type>whole</type>
        <lyric number="1">
          <syllabic>end</syllabic>
          <text>án.</text>
          </lyric>
        <lyric number="2">
          <syllabic>end</syllabic>
          <text>sú.</text>
          </lyric>
        </note>
      <barline location="right">
        <bar-style>light-heavy</bar-style>
        </barline>
      </measure>
    </part>
  </score-partwise>
